<svg id="visual" viewBox="0 0 1920 1080" width="1920" height="1080" xmlns="http://www.w3.org/2000/svg" xmlns:xlink="http://www.w3.org/1999/xlink" version="1.1"><path d="M0 23L80 55.3C160 87.7 320 152.3 480 179.3C640 206.3 800 195.7 960 165C1120 134.3 1280 83.7 1440 87.2C1600 90.7 1760 148.3 1840 177.2L1920 206L1920 0L1840 0C1760 0 1600 0 1440 0C1280 0 1120 0 960 0C800 0 640 0 480 0C320 0 160 0 80 0L0 0Z" fill="#b52678"></path><path d="M0 347L80 343.3C160 339.7 320 332.3 480 308.8C640 285.3 800 245.7 960 209.7C1120 173.7 1280 141.3 1440 155.8C1600 170.3 1760 231.7 1840 262.3L1920 293L1920 204L1840 175.2C1760 146.3 1600 88.7 1440 85.2C1280 81.7 1120 132.3 960 163C800 193.7 640 204.3 480 177.3C320 150.3 160 85.7 80 53.3L0 21Z" fill="#9a3083"></path><path d="M0 573L80 549.7C160 526.3 320 479.7 480 503.2C640 526.7 800 620.3 960 624C1120 627.7 1280 541.3 1440 579.2C1600 617 1760 779 1840 860L1920 941L1920 291L1840 260.3C1760 229.7 1600 168.3 1440 153.8C1280 139.3 1120 171.7 960 207.7C800 243.7 640 283.3 480 306.8C320 330.3 160 337.7 80 341.3L0 345Z" fill="#7d3888"></path><path d="M0 1049L80 1013C160 977 320 905 480 879.7C640 854.3 800 875.7 960 870.2C1120 864.7 1280 832.3 1440 857.7C1600 883 1760 966 1840 1007.5L1920 1049L1920 939L1840 858C1760 777 1600 615 1440 577.2C1280 539.3 1120 625.7 960 622C800 618.3 640 524.7 480 501.2C320 477.7 160 524.3 80 547.7L0 571Z" fill="#5d3d87"></path><path d="M0 1081L80 1081C160 1081 320 1081 480 1081C640 1081 800 1081 960 1081C1120 1081 1280 1081 1440 1081C1600 1081 1760 1081 1840 1081L1920 1081L1920 1047L1840 1005.5C1760 964 1600 881 1440 855.7C1280 830.3 1120 862.7 960 868.2C800 873.7 640 852.3 480 877.7C320 903 160 975 80 1011L0 1047Z" fill="#3c3e81"></path></svg>